# Blender 4.1.1
# www.blender.org
mtllib cajon.mtl
o Cube
v 2.427902 1.000000 -1.000000
v 2.427902 -1.000000 -1.000000
v 2.427902 0.393581 1.000000
v 2.427902 -1.000000 1.000000
v -2.427902 1.000000 -1.000000
v -2.427902 -1.000000 -1.000000
v -2.427902 0.393581 1.000000
v -2.427902 -1.000000 1.000000
v 2.243004 0.955741 -0.854033
v 2.243004 0.437839 0.854033
v -2.243004 0.955741 -0.854033
v -2.243004 0.437839 0.854033
v 2.427902 0.393581 1.000000
v -2.427902 0.393581 1.000000
v 2.427902 1.000000 -1.000000
v -2.427902 1.000000 -1.000000
v 2.243004 -0.508370 0.854033
v -2.243004 -0.508370 0.854033
v 2.243004 0.009532 -0.854033
v -2.243004 0.009532 -0.854033
vn -0.0000 1.0000 -0.0000
vn -0.0000 -0.0000 1.0000
vn -1.0000 -0.0000 -0.0000
vn -0.0000 -1.0000 -0.0000
vn 1.0000 -0.0000 -0.0000
vn -0.0000 -0.0000 -1.0000
vn -0.0000 0.9570 0.2902
vt 0.625000 0.500000
vt 0.625000 0.250000
vt 0.375000 0.750000
vt 0.625000 0.750000
vt 0.625000 1.000000
vt 0.375000 1.000000
vt 0.375000 0.000000
vt 0.625000 0.000000
vt 0.375000 0.250000
vt 0.125000 0.500000
vt 0.375000 0.500000
vt 0.125000 0.750000
vt 0.875000 0.500000
vt 0.875000 0.750000
s 0
usemtl Material
f 1/1/1 5/2/1 16/2/1 15/1/1
f 4/3/2 3/4/2 7/5/2 8/6/2
f 8/7/3 7/8/3 5/2/3 6/9/3
f 6/10/4 2/11/4 4/3/4 8/12/4
f 2/11/5 1/1/5 3/4/5 4/3/5
f 6/9/6 5/2/6 1/1/6 2/11/6
f 11/13/5 12/14/5 18/14/5 20/13/5
f 7/5/1 3/4/1 13/4/1 14/5/1
f 5/2/1 7/8/1 14/8/1 16/2/1
f 3/4/1 1/1/1 15/1/1 13/4/1
f 10/4/7 12/14/7 14/14/7 13/4/7
f 9/1/7 10/4/7 13/4/7 15/1/7
f 12/14/7 11/13/7 16/13/7 14/14/7
f 11/13/7 9/1/7 15/1/7 16/13/7
f 19/1/7 20/13/7 18/14/7 17/4/7
f 12/14/6 10/4/6 17/4/6 18/14/6
f 9/1/2 11/13/2 20/13/2 19/1/2
f 10/4/3 9/1/3 19/1/3 17/4/3
