# Blender 4.1.1
# www.blender.org
mtllib cartel.mtl
o Cube.001
v -1.770863 1.561726 -1.921878
v -1.770863 3.561726 -1.921878
v 1.762032 1.561726 -1.921878
v 1.762032 3.561726 -1.921878
v -1.676381 1.656208 -1.419548
v -1.770863 1.561726 -1.514029
v -1.676381 3.467244 -1.419548
v -1.770863 3.561726 -1.514029
v 1.667551 1.656208 -1.419548
v 1.762032 1.561726 -1.514029
v 1.667551 3.467244 -1.419548
v 1.762032 3.561726 -1.514029
v -1.572805 1.712303 -1.566639
v -1.572805 3.411149 -1.566639
v 1.563975 3.411149 -1.566639
v 1.563975 1.712303 -1.566639
v 0.024622 -0.574942 -1.675480
v 0.024622 1.613047 -1.675480
v 0.024622 -0.574942 -1.802320
v 0.024622 1.613047 -1.802320
v 0.134469 -0.574942 -1.738900
v 0.134469 1.613047 -1.738900
v 0.134469 -0.574942 -1.612060
v 0.134469 1.613047 -1.612060
v 0.024622 -0.574942 -1.548640
v 0.024622 1.613047 -1.548640
v -0.085224 -0.574942 -1.612060
v -0.085224 1.613047 -1.612060
v -0.085224 -0.574942 -1.738900
v -0.085224 1.613047 -1.738900
vn -0.8176 -0.0000 0.5757
vn -0.0000 -0.0000 -1.0000
vn -0.0000 1.0000 -0.0000
vn -1.0000 -0.0000 -0.0000
vn 1.0000 -0.0000 -0.0000
vn -0.7071 -0.0000 0.7071
vn 0.7071 -0.0000 0.7071
vn -0.0000 -0.7071 0.7071
vn -0.0000 0.7071 0.7071
vn -0.0000 -1.0000 -0.0000
vn -0.0000 -0.0000 1.0000
vn 0.8176 -0.0000 0.5757
vn -0.0000 -0.9344 0.3563
vn -0.0000 0.9344 0.3563
vn 0.5000 -0.0000 -0.8660
vn 0.5000 -0.0000 0.8660
vn -0.5000 -0.0000 0.8660
vn -0.5000 -0.0000 -0.8660
vt 0.386810 0.756686
vt 0.613190 0.756686
vt 0.375000 0.250000
vt 0.625000 0.250000
vt 0.625000 0.500000
vt 0.375000 0.500000
vt 0.875000 0.500000
vt 0.875000 0.702978
vt 0.625000 0.702978
vt 0.375000 0.047022
vt 0.625000 0.047022
vt 0.375000 0.702978
vt 0.386810 0.993314
vt 0.613190 0.993314
vt 0.625000 1.000000
vt 0.375000 1.000000
vt 0.375000 0.750000
vt 0.625000 0.750000
vt 0.125000 0.500000
vt 0.125000 0.702978
vt 0.750000 0.250000
vt 0.750000 0.490000
vt 0.957846 0.370000
vt 0.250000 0.250000
vt 0.457846 0.370000
vt 0.250000 0.490000
vt 1.000000 0.500000
vt 1.000000 1.000000
vt 0.833333 1.000000
vt 0.833333 0.500000
vt 0.957846 0.130000
vt 0.457846 0.130000
vt 0.666667 1.000000
vt 0.666667 0.500000
vt 0.750000 0.010000
vt 0.250000 0.010000
vt 0.500000 1.000000
vt 0.500000 0.500000
vt 0.542154 0.130000
vt 0.042154 0.130000
vt 0.333333 1.000000
vt 0.333333 0.500000
vt 0.542154 0.370000
vt 0.042154 0.370000
vt 0.166667 1.000000
vt 0.166667 0.500000
vt -0.000000 1.000000
vt -0.000000 0.500000
s 0
f 9/1/1 11/2/1 15/2/1 16/1/1
f 1/3/2 2/4/2 4/5/2 3/6/2
f 4/5/3 2/7/3 8/8/3 12/9/3
f 6/10/4 8/11/4 2/4/4 1/3/4
f 3/6/5 4/5/5 12/9/5 10/12/5
f 5/13/6 7/14/6 8/15/6 6/16/6
f 11/2/7 9/1/7 10/12/7 12/9/7
f 6/16/8 10/17/8 9/1/8 5/13/8
f 12/18/9 8/15/9 7/14/9 11/2/9
f 1/19/10 3/6/10 10/12/10 6/20/10
f 16/1/11 15/2/11 14/14/11 13/13/11
f 7/14/12 5/13/12 13/13/12 14/14/12
f 11/2/13 7/14/13 14/14/13 15/2/13
f 5/13/14 9/1/14 16/1/14 13/13/14
f 17/21/10 19/22/10 21/23/10
f 18/24/3 22/25/3 20/26/3
f 19/27/15 20/28/15 22/29/15 21/30/15
f 17/21/10 21/23/10 23/31/10
f 18/24/3 24/32/3 22/25/3
f 21/30/5 22/29/5 24/33/5 23/34/5
f 17/21/10 23/31/10 25/35/10
f 18/24/3 26/36/3 24/32/3
f 23/34/16 24/33/16 26/37/16 25/38/16
f 17/21/10 25/35/10 27/39/10
f 18/24/3 28/40/3 26/36/3
f 25/38/17 26/37/17 28/41/17 27/42/17
f 17/21/10 27/39/10 29/43/10
f 18/24/3 30/44/3 28/40/3
f 27/42/4 28/41/4 30/45/4 29/46/4
f 17/21/10 29/43/10 19/22/10
f 18/24/3 20/26/3 30/44/3
f 29/46/18 30/45/18 20/47/18 19/48/18
