# Blender 4.1.1
# www.blender.org
mtllib cartelmadera.mtl
o Cube
v -0.033538 2.921725 -1.825500
v -0.093326 2.921725 -1.754611
v -0.033538 2.893854 -1.754611
v 0.078630 2.921725 -1.754611
v 0.018841 2.921725 -1.825500
v 0.018841 2.893854 -1.754611
v -0.033537 2.893854 1.754611
v -0.093326 2.921725 1.754611
v -0.033537 2.921725 1.825500
v 0.018841 2.893854 1.754611
v 0.018841 2.921725 1.825500
v 0.078630 2.921725 1.754611
v -0.033538 3.301517 -1.825499
v -0.033538 3.329285 -1.754610
v -0.093326 3.301517 -1.754610
v 0.018841 3.329285 -1.754610
v 0.018841 3.301517 -1.825499
v 0.078630 3.301517 -1.754610
v -0.033537 3.329285 1.754611
v -0.033537 3.301516 1.825500
v -0.093326 3.301516 1.754611
v 0.078630 3.301516 1.754611
v 0.018841 3.301516 1.825500
v 0.018841 3.329285 1.754611
v -0.033538 3.357054 -1.825499
v -0.093326 3.357054 -1.754610
v 0.078630 3.357054 -1.754610
v 0.018841 3.357054 -1.825499
v -0.093326 3.357053 1.754611
v -0.033537 3.357053 1.825500
v 0.018841 3.357053 1.825500
v 0.078630 3.357053 1.754611
v -0.033538 3.736845 -1.825499
v -0.033538 3.764405 -1.754610
v -0.093326 3.736845 -1.754610
v 0.018841 3.764405 -1.754610
v 0.018841 3.736845 -1.825499
v 0.078630 3.736845 -1.754610
v -0.033537 3.764405 1.754611
v -0.033537 3.736845 1.825500
v -0.093326 3.736845 1.754611
v 0.078630 3.736845 1.754611
v 0.018842 3.736845 1.825500
v 0.018842 3.764405 1.754611
v -0.033538 2.486192 -1.825500
v -0.093326 2.486192 -1.754611
v -0.033538 2.458587 -1.754611
v 0.078630 2.486192 -1.754611
v 0.018841 2.486192 -1.825500
v 0.018841 2.458587 -1.754611
v -0.033537 2.458587 1.754611
v -0.093326 2.486192 1.754611
v -0.033537 2.486192 1.825500
v 0.018841 2.458587 1.754611
v 0.018841 2.486192 1.825500
v 0.078630 2.486192 1.754611
v -0.033538 2.865984 -1.825500
v -0.093326 2.865984 -1.754611
v 0.018841 2.865984 -1.825500
v 0.078630 2.865984 -1.754611
v -0.033537 2.865983 1.825500
v -0.093326 2.865983 1.754611
v 0.078630 2.865983 1.754611
v 0.018841 2.865983 1.825500
v -0.033538 2.051191 -1.825500
v -0.093326 2.051191 -1.754611
v -0.033538 2.023531 -1.754611
v 0.078630 2.051191 -1.754611
v 0.018841 2.051191 -1.825500
v 0.018841 2.023531 -1.754611
v -0.033537 2.023530 1.754611
v -0.093326 2.051190 1.754611
v -0.033537 2.051190 1.825500
v 0.018841 2.023530 1.754611
v 0.018841 2.051190 1.825500
v 0.078630 2.051190 1.754611
v -0.033538 2.430982 -1.825500
v -0.093326 2.430982 -1.754611
v 0.018841 2.430982 -1.825500
v 0.078630 2.430982 -1.754611
v -0.033537 2.430982 1.825500
v -0.093326 2.430982 1.754611
v 0.078630 2.430982 1.754611
v 0.018841 2.430982 1.825500
v -0.033538 1.616080 -1.825500
v -0.093326 1.616080 -1.754611
v -0.033538 1.588520 -1.754611
v 0.078630 1.616080 -1.754611
v 0.018841 1.616080 -1.825500
v 0.018841 1.588520 -1.754611
v -0.033537 1.588519 1.754611
v -0.093326 1.616079 1.754611
v -0.033537 1.616079 1.825500
v 0.018841 1.588519 1.754611
v 0.018841 1.616079 1.825500
v 0.078630 1.616079 1.754611
v -0.033538 1.995871 -1.825500
v -0.093326 1.995871 -1.754611
v 0.018841 1.995871 -1.825500
v 0.078630 1.995871 -1.754611
v -0.033537 1.995871 1.825500
v -0.093326 1.995871 1.754611
v 0.078630 1.995871 1.754611
v 0.018841 1.995871 1.825500
v -0.006672 0.008359 0.012115
v -0.006672 1.747264 0.012115
v -0.006672 0.008359 -0.118303
v -0.006672 1.747264 -0.118303
v 0.095292 0.008359 -0.069199
v 0.095292 1.747264 -0.069199
v 0.120476 0.008359 0.041136
v 0.120476 1.747264 0.041136
v 0.049914 0.008359 0.129617
v 0.049914 1.747264 0.129617
v -0.063259 0.008359 0.129617
v -0.063259 1.747264 0.129617
v -0.133820 0.008359 0.041136
v -0.133820 1.747264 0.041136
v -0.108637 0.008359 -0.069199
v -0.108637 1.747264 -0.069199
vn 1.0000 -0.0000 -0.0000
vn -0.0000 -0.0000 1.0000
vn -1.0000 -0.0000 -0.0000
vn -0.3980 -0.8538 -0.3357
vn 0.3980 -0.8538 -0.3357
vn -0.3980 -0.8538 0.3357
vn 0.3980 -0.8538 0.3357
vn -0.3969 0.8546 -0.3348
vn 0.3969 0.8546 -0.3348
vn -0.3969 0.8546 0.3348
vn 0.3969 0.8546 0.3348
vn 0.4212 0.9070 -0.0000
vn 0.7644 -0.0000 -0.6447
vn -0.0000 -0.9307 -0.3659
vn -0.0000 0.9311 0.3647
vn -0.0000 -0.9307 0.3659
vn -0.0000 0.9311 -0.3647
vn -0.7644 -0.0000 0.6447
vn -0.4225 -0.9064 -0.0000
vn 0.7644 -0.0000 0.6447
vn -0.4212 0.9070 -0.0000
vn -0.7644 -0.0000 -0.6447
vn 0.4225 -0.9064 -0.0000
vn -0.0000 -0.0000 -1.0000
vn -0.0000 1.0000 -0.0000
vn -0.3969 -0.8546 -0.3348
vn 0.3969 -0.8546 -0.3348
vn -0.3969 -0.8546 0.3348
vn 0.3969 -0.8546 0.3348
vn -0.3947 0.8564 -0.3329
vn 0.3947 0.8564 -0.3329
vn -0.3947 0.8564 0.3329
vn 0.3947 0.8564 0.3329
vn 0.4186 0.9082 -0.0000
vn -0.0000 -0.9311 -0.3647
vn -0.0000 0.9320 0.3624
vn -0.0000 -0.9311 0.3647
vn -0.0000 0.9320 -0.3624
vn -0.4212 -0.9070 -0.0000
vn -0.4186 0.9082 -0.0000
vn 0.4212 -0.9070 -0.0000
vn -0.3952 -0.8560 -0.3333
vn 0.3952 -0.8560 -0.3333
vn -0.3952 -0.8560 0.3333
vn 0.3952 -0.8560 0.3333
vn -0.3980 0.8538 -0.3357
vn 0.3980 0.8538 -0.3357
vn -0.3980 0.8538 0.3357
vn 0.3980 0.8538 0.3357
vn 0.4225 0.9064 -0.0000
vn -0.0000 -0.9318 -0.3629
vn -0.0000 0.9307 0.3659
vn -0.0000 -0.9318 0.3629
vn -0.0000 0.9307 -0.3659
vn -0.4192 -0.9079 -0.0000
vn -0.4225 0.9064 -0.0000
vn 0.4192 -0.9079 -0.0000
vn -0.3958 -0.8555 -0.3338
vn 0.3958 -0.8555 -0.3338
vn -0.3958 -0.8555 0.3338
vn 0.3958 -0.8555 0.3338
vn -0.3952 0.8560 -0.3333
vn 0.3952 0.8560 -0.3333
vn -0.3952 0.8560 0.3333
vn 0.3952 0.8560 0.3333
vn 0.4192 0.9079 -0.0000
vn -0.0000 -0.9316 -0.3635
vn -0.0000 0.9318 0.3629
vn -0.0000 -0.9316 0.3635
vn -0.0000 0.9318 -0.3629
vn -0.4199 -0.9076 -0.0000
vn -0.4192 0.9079 -0.0000
vn 0.4199 -0.9076 -0.0000
vn -0.0000 -1.0000 -0.0000
vn -0.3947 -0.8564 -0.3329
vn 0.3947 -0.8564 -0.3329
vn -0.3947 -0.8563 0.3329
vn 0.3947 -0.8563 0.3329
vn -0.3958 0.8555 -0.3338
vn 0.3958 0.8555 -0.3338
vn -0.3958 0.8555 0.3338
vn 0.3958 0.8555 0.3338
vn 0.4199 0.9076 -0.0000
vn -0.0000 -0.9320 -0.3624
vn -0.0000 0.9316 0.3635
vn -0.0000 -0.9320 0.3624
vn -0.0000 0.9316 -0.3635
vn -0.4186 -0.9082 -0.0000
vn -0.4199 0.9076 -0.0000
vn 0.4186 -0.9082 -0.0000
vn 0.4339 -0.0000 -0.9010
vn 0.9749 -0.0000 -0.2225
vn 0.7818 -0.0000 0.6235
vn -0.7818 -0.0000 0.6235
vn -0.9749 -0.0000 -0.2225
vn -0.4339 -0.0000 -0.9010
vt 0.140842 0.504854
vt 0.140842 0.745146
vt 0.359158 0.745146
vt 0.359158 0.504854
vt 0.461924 0.765842
vt 0.461924 0.984158
vt 0.538076 0.984158
vt 0.538075 0.765842
vt 0.640842 0.504854
vt 0.640842 0.745146
vt 0.859158 0.745146
vt 0.859158 0.504854
vt 0.640842 0.500000
vt 0.625000 0.504854
vt 0.375000 0.484158
vt 0.461924 0.500000
vt 0.461924 0.484158
vt 0.625000 0.745146
vt 0.640842 0.750000
vt 0.461924 0.750000
vt 0.375000 0.765842
vt 0.859158 0.500000
vt 0.875000 0.504854
vt 0.461924 0.245146
vt 0.375000 0.245146
vt 0.461924 0.250000
vt 0.875000 0.745146
vt 0.859158 0.750000
vt 0.375000 0.004854
vt 0.461924 0.004854
vt 0.461924 0.000000
vt 0.461924 0.265842
vt 0.375000 0.265842
vt 0.538076 0.504854
vt 0.538076 0.484158
vt 0.461924 0.504854
vt 0.538076 0.004854
vt 0.538076 0.000000
vt 0.538075 0.745146
vt 0.461924 0.745146
vt 0.538075 0.265842
vt 0.538075 0.245146
vt 0.375000 0.984158
vt 0.750000 0.250000
vt 0.750000 0.490000
vt 0.937639 0.399638
vt 0.250000 0.250000
vt 0.437640 0.399638
vt 0.250000 0.490000
vt 1.000000 0.500000
vt 1.000000 1.000000
vt 0.857143 1.000000
vt 0.857143 0.500000
vt 0.983983 0.196595
vt 0.483983 0.196595
vt 0.714286 1.000000
vt 0.714286 0.500000
vt 0.854132 0.033768
vt 0.354132 0.033768
vt 0.571429 1.000000
vt 0.571429 0.500000
vt 0.645868 0.033768
vt 0.145868 0.033768
vt 0.428571 1.000000
vt 0.428571 0.500000
vt 0.516017 0.196595
vt 0.016017 0.196595
vt 0.285714 1.000000
vt 0.285714 0.500000
vt 0.562360 0.399638
vt 0.062360 0.399638
vt 0.142857 1.000000
vt 0.142857 0.500000
vt 0.000000 1.000000
vt 0.000000 0.500000
s 0
usemtl Material
f 18/1/1 22/2/1 12/3/1 4/4/1
f 11/5/2 23/6/2 20/7/2 9/8/2
f 2/9/3 8/10/3 21/11/3 15/12/3
f 1/13/4 3/14/4 2/9/4
f 4/15/5 6/16/5 5/17/5
f 7/18/6 9/19/6 8/10/6
f 10/20/7 12/21/7 11/5/7
f 13/22/8 15/12/8 14/23/8
f 16/24/9 18/25/9 17/26/9
f 19/27/10 21/11/10 20/28/10
f 22/29/11 24/30/11 23/31/11
f 18/25/12 16/24/12 24/30/12 22/29/12
f 4/15/13 5/17/13 17/32/13 18/33/13
f 3/34/14 1/35/14 5/17/14 6/36/14
f 23/31/15 24/30/15 19/37/15 20/38/15
f 9/8/16 7/39/16 10/40/16 11/5/16
f 13/41/17 14/42/17 16/24/17 17/32/17
f 8/10/18 9/19/18 20/28/18 21/11/18
f 2/9/19 3/34/19 7/39/19 8/10/19
f 22/43/20 23/6/20 11/5/20 12/21/20
f 21/11/21 19/27/21 14/23/21 15/12/21
f 15/12/22 13/22/22 1/13/22 2/9/22
f 12/3/23 10/40/23 6/36/23 4/4/23
f 17/32/24 5/17/24 1/35/24 13/41/24
f 38/1/1 42/2/1 32/3/1 27/4/1
f 44/30/25 36/24/25 34/42/25 39/37/25
f 31/5/2 43/6/2 40/7/2 30/8/2
f 26/9/3 29/10/3 41/11/3 35/12/3
f 25/13/26 14/14/26 26/9/26
f 27/15/27 16/16/27 28/17/27
f 19/18/28 30/19/28 29/10/28
f 24/20/29 32/21/29 31/5/29
f 33/22/30 35/12/30 34/23/30
f 36/24/31 38/25/31 37/26/31
f 39/27/32 41/11/32 40/28/32
f 42/29/33 44/30/33 43/31/33
f 38/25/34 36/24/34 44/30/34 42/29/34
f 27/15/13 28/17/13 37/32/13 38/33/13
f 14/34/35 25/35/35 28/17/35 16/36/35
f 43/31/36 44/30/36 39/37/36 40/38/36
f 30/8/37 19/39/37 24/40/37 31/5/37
f 33/41/38 34/42/38 36/24/38 37/32/38
f 29/10/18 30/19/18 40/28/18 41/11/18
f 26/9/39 14/34/39 19/39/39 29/10/39
f 42/43/20 43/6/20 31/5/20 32/21/20
f 41/11/40 39/27/40 34/23/40 35/12/40
f 35/12/22 33/22/22 25/13/22 26/9/22
f 32/3/41 24/40/41 16/36/41 27/4/41
f 37/32/24 28/17/24 25/35/24 33/41/24
f 60/1/1 63/2/1 56/3/1 48/4/1
f 55/5/2 64/6/2 61/7/2 53/8/2
f 46/9/3 52/10/3 62/11/3 58/12/3
f 45/13/42 47/14/42 46/9/42
f 48/15/43 50/16/43 49/17/43
f 51/18/44 53/19/44 52/10/44
f 54/20/45 56/21/45 55/5/45
f 57/22/46 58/12/46 3/23/46
f 6/24/47 60/25/47 59/26/47
f 7/27/48 62/11/48 61/28/48
f 63/29/49 10/30/49 64/31/49
f 60/25/50 6/24/50 10/30/50 63/29/50
f 48/15/13 49/17/13 59/32/13 60/33/13
f 47/34/51 45/35/51 49/17/51 50/36/51
f 64/31/52 10/30/52 7/37/52 61/38/52
f 53/8/53 51/39/53 54/40/53 55/5/53
f 57/41/54 3/42/54 6/24/54 59/32/54
f 52/10/18 53/19/18 61/28/18 62/11/18
f 46/9/55 47/34/55 51/39/55 52/10/55
f 63/43/20 64/6/20 55/5/20 56/21/20
f 62/11/56 7/27/56 3/23/56 58/12/56
f 58/12/22 57/22/22 45/13/22 46/9/22
f 56/3/57 54/40/57 50/36/57 48/4/57
f 59/32/24 49/17/24 45/35/24 57/41/24
f 80/1/1 83/2/1 76/3/1 68/4/1
f 75/5/2 84/6/2 81/7/2 73/8/2
f 66/9/3 72/10/3 82/11/3 78/12/3
f 65/13/58 67/14/58 66/9/58
f 68/15/59 70/16/59 69/17/59
f 71/18/60 73/19/60 72/10/60
f 74/20/61 76/21/61 75/5/61
f 77/22/62 78/12/62 47/23/62
f 50/24/63 80/25/63 79/26/63
f 51/27/64 82/11/64 81/28/64
f 83/29/65 54/30/65 84/31/65
f 80/25/66 50/24/66 54/30/66 83/29/66
f 68/15/13 69/17/13 79/32/13 80/33/13
f 67/34/67 65/35/67 69/17/67 70/36/67
f 84/31/68 54/30/68 51/37/68 81/38/68
f 73/8/69 71/39/69 74/40/69 75/5/69
f 77/41/70 47/42/70 50/24/70 79/32/70
f 72/10/18 73/19/18 81/28/18 82/11/18
f 66/9/71 67/34/71 71/39/71 72/10/71
f 83/43/20 84/6/20 75/5/20 76/21/20
f 82/11/72 51/27/72 47/23/72 78/12/72
f 78/12/22 77/22/22 65/13/22 66/9/22
f 76/3/73 74/40/73 70/36/73 68/4/73
f 79/32/24 69/17/24 65/35/24 77/41/24
f 100/1/1 103/2/1 96/3/1 88/4/1
f 95/5/2 104/6/2 101/7/2 93/8/2
f 86/9/3 92/10/3 102/11/3 98/12/3
f 90/36/74 94/40/74 91/39/74 87/34/74
f 85/13/75 87/14/75 86/9/75
f 88/15/76 90/16/76 89/17/76
f 91/18/77 93/19/77 92/10/77
f 94/20/78 96/21/78 95/5/78
f 97/22/79 98/12/79 67/23/79
f 70/24/80 100/25/80 99/26/80
f 71/27/81 102/11/81 101/28/81
f 103/29/82 74/30/82 104/31/82
f 100/25/83 70/24/83 74/30/83 103/29/83
f 88/15/13 89/17/13 99/32/13 100/33/13
f 87/34/84 85/35/84 89/17/84 90/36/84
f 104/31/85 74/30/85 71/37/85 101/38/85
f 93/8/86 91/39/86 94/40/86 95/5/86
f 97/41/87 67/42/87 70/24/87 99/32/87
f 92/10/18 93/19/18 101/28/18 102/11/18
f 86/9/88 87/34/88 91/39/88 92/10/88
f 103/43/20 104/6/20 95/5/20 96/21/20
f 102/11/89 71/27/89 67/23/89 98/12/89
f 98/12/22 97/22/22 85/13/22 86/9/22
f 96/3/90 94/40/90 90/36/90 88/4/90
f 99/32/24 89/17/24 85/35/24 97/41/24
f 105/44/74 107/45/74 109/46/74
f 106/47/25 110/48/25 108/49/25
f 107/50/91 108/51/91 110/52/91 109/53/91
f 105/44/74 109/46/74 111/54/74
f 106/47/25 112/55/25 110/48/25
f 109/53/92 110/52/92 112/56/92 111/57/92
f 105/44/74 111/54/74 113/58/74
f 106/47/25 114/59/25 112/55/25
f 111/57/93 112/56/93 114/60/93 113/61/93
f 105/44/74 113/58/74 115/62/74
f 106/47/25 116/63/25 114/59/25
f 113/61/2 114/60/2 116/64/2 115/65/2
f 105/44/74 115/62/74 117/66/74
f 106/47/25 118/67/25 116/63/25
f 115/65/94 116/64/94 118/68/94 117/69/94
f 105/44/74 117/66/74 119/70/74
f 106/47/25 120/71/25 118/67/25
f 117/69/95 118/68/95 120/72/95 119/73/95
f 105/44/74 119/70/74 107/45/74
f 106/47/25 108/49/25 120/71/25
f 119/73/96 120/72/96 108/74/96 107/75/96
